<svg width="106" height="95" viewBox="0 0 106 95" fill="none" xmlns="http://www.w3.org/2000/svg">
<path d="M53 0C40.1935 0 29.8125 10.381 29.8125 23.1875C29.8125 33.5409 44.9672 52.4111 50.7733 59.2606C51.9492 60.6482 54.0526 60.6482 55.2267 59.2606C61.0328 52.4111 76.1875 33.5409 76.1875 23.1875C76.1875 10.381 65.8065 0 53 0ZM3.70264 39.7408C2.60984 40.1779 1.67305 40.9323 1.01309 41.9069C0.353128 42.8814 0.000261726 44.0313 0 45.2083L0 91.2741C0 93.3573 2.10344 94.7817 4.03757 94.0087L29.4444 82.4444V39.5512C27.8176 36.6105 26.4871 33.747 25.5339 31.0087L3.70264 39.7408ZM53 66.1893C50.4107 66.1893 47.9613 65.052 46.2811 63.0682C42.6632 58.7987 38.8151 53.9367 35.3333 48.9495V82.4426L70.6667 94.2204V48.9514C67.1849 53.9367 63.3387 58.8006 59.7189 63.07C58.0387 65.052 55.5893 66.1893 53 66.1893ZM101.962 29.6579L76.5556 41.2222V94.2222L102.297 83.9259C103.39 83.489 104.327 82.7346 104.987 81.76C105.647 80.7854 106 79.6354 106 78.4584V32.3926C106 30.3094 103.897 28.885 101.962 29.6579Z" fill="#F5B100"/>
</svg>
