<svg width="19" height="19" viewBox="0 0 19 19" fill="none" xmlns="http://www.w3.org/2000/svg">
<path d="M4.9347 12.4614C7.91805 16.15 15.1894 19.6807 16.9441 18.8874C18.2436 18.3152 19.0587 17.0037 18.9967 15.5847C18.9207 14.7926 14.9354 12.3616 13.9334 11.9032C12.9315 11.4448 11.7775 12.9281 11.2255 13.5658C10.6485 14.1774 8.44278 12.3105 7.48948 11.364C7.48948 11.364 4.98219 8.496 5.55915 7.88439C6.13611 7.27279 7.56546 6.04245 7.06448 5.04131C6.56349 4.04017 4.03008 0.0534414 3.22874 0C1.81844 0.00428444 0.563196 0.895293 0.0934331 2.22554C-0.608183 4.04374 2.7515 10.9792 6.48751 13.8734" fill="#F5B100"/>
</svg>
