<svg width="47" height="48" viewBox="0 0 47 48" fill="none" xmlns="http://www.w3.org/2000/svg">
<path d="M12.786 31.1916C20.0294 40.1441 37.6838 48.7134 41.9439 46.788C45.0991 45.3993 47.0781 42.2161 46.9275 38.7721C46.743 36.8496 37.067 30.9494 34.6343 29.8368C32.2015 28.7243 29.3999 32.3243 28.0596 33.8721C26.6588 35.3566 21.3034 30.8255 18.9888 28.5283C18.9888 28.5283 12.9013 21.5674 14.3021 20.083C15.703 18.5986 19.1733 15.6124 17.957 13.1826C16.7406 10.7528 10.5897 1.07673 8.64407 0.947021C5.21996 0.95742 2.17233 3.11996 1.03178 6.34855C-0.671691 10.7614 7.48537 27.5944 16.5561 34.6187" fill="#F5B100"/>
</svg>
