<svg width="549" height="172" viewBox="0 0 549 172" fill="none" xmlns="http://www.w3.org/2000/svg">
<path d="M20.0336 31.64C20.8336 31.64 21.5056 31.544 22.0496 31.352C22.5936 31.16 23.0256 30.904 23.3456 30.584C23.6763 30.264 23.9109 29.8907 24.0496 29.464C24.1989 29.0373 24.2736 28.584 24.2736 28.104C24.2736 27.6027 24.1936 27.1547 24.0336 26.76C23.8736 26.3547 23.6229 26.0133 23.2816 25.736C22.9403 25.448 22.4976 25.2293 21.9536 25.08C21.4203 24.9307 20.7749 24.856 20.0176 24.856H15.6816V31.64H20.0336ZM15.6816 15.192V21.88H19.1056C20.5776 21.88 21.6869 21.6133 22.4336 21.08C23.1909 20.5467 23.5696 19.6987 23.5696 18.536C23.5696 17.3307 23.2283 16.472 22.5456 15.96C21.8629 15.448 20.7963 15.192 19.3456 15.192H15.6816ZM19.3456 11.864C20.8603 11.864 22.1563 12.008 23.2336 12.296C24.3109 12.584 25.1909 12.9947 25.8736 13.528C26.5669 14.0613 27.0736 14.7067 27.3936 15.464C27.7136 16.2213 27.8736 17.0747 27.8736 18.024C27.8736 18.568 27.7936 19.0907 27.6336 19.592C27.4736 20.0827 27.2229 20.5467 26.8816 20.984C26.5509 21.4107 26.1243 21.8 25.6016 22.152C25.0896 22.504 24.4763 22.8027 23.7616 23.048C26.9403 23.7627 28.5296 25.48 28.5296 28.2C28.5296 29.1813 28.3429 30.088 27.9696 30.92C27.5963 31.752 27.0523 32.472 26.3376 33.08C25.6229 33.6773 24.7429 34.1467 23.6976 34.488C22.6523 34.8293 21.4576 35 20.1136 35H11.3776V11.864H19.3456ZM39.4321 22.872C40.2428 22.872 40.9468 22.7707 41.5441 22.568C42.1521 22.3653 42.6481 22.088 43.0321 21.736C43.4268 21.3733 43.7201 20.9467 43.9121 20.456C44.1041 19.9653 44.2001 19.4267 44.2001 18.84C44.2001 17.6667 43.8108 16.7653 43.0321 16.136C42.2641 15.5067 41.0854 15.192 39.4961 15.192H36.7441V22.872H39.4321ZM50.5041 35H46.6161C45.8801 35 45.3468 34.712 45.0161 34.136L40.1521 26.728C39.9708 26.4507 39.7681 26.2533 39.5441 26.136C39.3308 26.0187 39.0108 25.96 38.5841 25.96H36.7441V35H32.4401V11.864H39.4961C41.0641 11.864 42.4081 12.0293 43.5281 12.36C44.6588 12.68 45.5814 13.1333 46.2961 13.72C47.0214 14.3067 47.5548 15.0107 47.8961 15.832C48.2374 16.6427 48.4081 17.5387 48.4081 18.52C48.4081 19.2987 48.2908 20.0347 48.0561 20.728C47.8321 21.4213 47.5014 22.0507 47.0641 22.616C46.6374 23.1813 46.1041 23.6773 45.4641 24.104C44.8348 24.5307 44.1148 24.8667 43.3041 25.112C43.5814 25.272 43.8374 25.464 44.0721 25.688C44.3068 25.9013 44.5201 26.1573 44.7121 26.456L50.5041 35ZM74.7541 23.432C74.7541 25.128 74.4714 26.7013 73.9061 28.152C73.3514 29.592 72.5621 30.84 71.5381 31.896C70.5141 32.952 69.2821 33.7787 67.8421 34.376C66.4021 34.9627 64.8021 35.256 63.0421 35.256C61.2928 35.256 59.6981 34.9627 58.2581 34.376C56.8181 33.7787 55.5808 32.952 54.5461 31.896C53.5221 30.84 52.7274 29.592 52.1621 28.152C51.5968 26.7013 51.3141 25.128 51.3141 23.432C51.3141 21.736 51.5968 20.168 52.1621 18.728C52.7274 17.2773 53.5221 16.024 54.5461 14.968C55.5808 13.912 56.8181 13.0907 58.2581 12.504C59.6981 11.9067 61.2928 11.608 63.0421 11.608C64.2154 11.608 65.3194 11.7467 66.3541 12.024C67.3888 12.2907 68.3381 12.6747 69.2021 13.176C70.0661 13.6667 70.8394 14.2693 71.5221 14.984C72.2154 15.688 72.8021 16.4773 73.2821 17.352C73.7621 18.2267 74.1248 19.176 74.3701 20.2C74.6261 21.224 74.7541 22.3013 74.7541 23.432ZM70.3541 23.432C70.3541 22.1627 70.1834 21.0267 69.8421 20.024C69.5008 19.0107 69.0154 18.152 68.3861 17.448C67.7568 16.744 66.9888 16.2053 66.0821 15.832C65.1861 15.4587 64.1728 15.272 63.0421 15.272C61.9114 15.272 60.8928 15.4587 59.9861 15.832C59.0901 16.2053 58.3221 16.744 57.6821 17.448C57.0528 18.152 56.5674 19.0107 56.2261 20.024C55.8848 21.0267 55.7141 22.1627 55.7141 23.432C55.7141 24.7013 55.8848 25.8427 56.2261 26.856C56.5674 27.8587 57.0528 28.712 57.6821 29.416C58.3221 30.1093 59.0901 30.6427 59.9861 31.016C60.8928 31.3893 61.9114 31.576 63.0421 31.576C64.1728 31.576 65.1861 31.3893 66.0821 31.016C66.9888 30.6427 67.7568 30.1093 68.3861 29.416C69.0154 28.712 69.5008 27.8587 69.8421 26.856C70.1834 25.8427 70.3541 24.7013 70.3541 23.432ZM108.849 11.864L101.665 35H97.7771L92.7211 19.192C92.5824 18.808 92.4544 18.3387 92.3371 17.784C92.2731 18.0507 92.2091 18.3013 92.1451 18.536C92.0811 18.7707 92.0118 18.9893 91.9371 19.192L86.8331 35H82.9291L75.7611 11.864H79.3611C79.7344 11.864 80.0438 11.9547 80.2891 12.136C80.5451 12.3067 80.7158 12.5413 80.8011 12.84L84.7371 26.68C84.8224 27.0213 84.9024 27.3947 84.9771 27.8C85.0624 28.1947 85.1478 28.6107 85.2331 29.048C85.3184 28.6 85.4091 28.1787 85.5051 27.784C85.6118 27.3893 85.7238 27.0213 85.8411 26.68L90.3851 12.84C90.4704 12.5947 90.6358 12.3707 90.8811 12.168C91.1371 11.9653 91.4464 11.864 91.8091 11.864H93.0731C93.4464 11.864 93.7504 11.9547 93.9851 12.136C94.2198 12.3173 94.3958 12.552 94.5131 12.84L99.0411 26.68C99.2651 27.3413 99.4678 28.104 99.6491 28.968C99.7878 28.1253 99.9424 27.3627 100.113 26.68L104.049 12.84C104.113 12.5733 104.273 12.344 104.529 12.152C104.796 11.96 105.11 11.864 105.473 11.864H108.849ZM123.76 16.072C123.632 16.296 123.493 16.4613 123.344 16.568C123.205 16.664 123.029 16.712 122.816 16.712C122.592 16.712 122.347 16.632 122.08 16.472C121.824 16.3013 121.515 16.1147 121.152 15.912C120.789 15.7093 120.363 15.528 119.872 15.368C119.392 15.1973 118.821 15.112 118.16 15.112C117.563 15.112 117.04 15.1867 116.592 15.336C116.144 15.4747 115.765 15.672 115.456 15.928C115.157 16.184 114.933 16.4933 114.784 16.856C114.635 17.208 114.56 17.5973 114.56 18.024C114.56 18.568 114.709 19.0213 115.008 19.384C115.317 19.7467 115.723 20.056 116.224 20.312C116.725 20.568 117.296 20.7973 117.936 21C118.576 21.2027 119.232 21.4213 119.904 21.656C120.576 21.88 121.232 22.1467 121.872 22.456C122.512 22.7547 123.083 23.1387 123.584 23.608C124.085 24.0667 124.485 24.632 124.784 25.304C125.093 25.976 125.248 26.792 125.248 27.752C125.248 28.7973 125.067 29.7787 124.704 30.696C124.352 31.6027 123.829 32.3973 123.136 33.08C122.453 33.752 121.616 34.2853 120.624 34.68C119.632 35.064 118.496 35.256 117.216 35.256C116.48 35.256 115.755 35.1813 115.04 35.032C114.325 34.8933 113.637 34.6907 112.976 34.424C112.325 34.1573 111.712 33.8373 111.136 33.464C110.56 33.0907 110.048 32.6747 109.6 32.216L110.864 30.152C110.971 30.0027 111.109 29.88 111.28 29.784C111.451 29.6773 111.632 29.624 111.824 29.624C112.091 29.624 112.379 29.736 112.688 29.96C112.997 30.1733 113.365 30.4133 113.792 30.68C114.219 30.9467 114.715 31.192 115.28 31.416C115.856 31.6293 116.544 31.736 117.344 31.736C118.571 31.736 119.52 31.448 120.192 30.872C120.864 30.2853 121.2 29.448 121.2 28.36C121.2 27.752 121.045 27.256 120.736 26.872C120.437 26.488 120.037 26.168 119.536 25.912C119.035 25.6453 118.464 25.4213 117.824 25.24C117.184 25.0587 116.533 24.8613 115.872 24.648C115.211 24.4347 114.56 24.1787 113.92 23.88C113.28 23.5813 112.709 23.192 112.208 22.712C111.707 22.232 111.301 21.6347 110.992 20.92C110.693 20.1947 110.544 19.304 110.544 18.248C110.544 17.4053 110.709 16.584 111.04 15.784C111.381 14.984 111.872 14.2747 112.512 13.656C113.152 13.0373 113.941 12.5413 114.88 12.168C115.819 11.7947 116.896 11.608 118.112 11.608C119.477 11.608 120.736 11.8213 121.888 12.248C123.04 12.6747 124.021 13.272 124.832 14.04L123.76 16.072ZM133.323 15.288V21.704H141.419V25.016H133.323V31.56H143.595V35H129.003V11.864H143.595V15.288H133.323ZM27.2656 74.544C27.5003 74.544 27.7083 74.6347 27.8896 74.816L29.5856 76.656C28.6469 77.8187 27.4896 78.7093 26.1136 79.328C24.7483 79.9467 23.1056 80.256 21.1856 80.256C19.4683 80.256 17.9216 79.9627 16.5456 79.376C15.1803 78.7893 14.0123 77.9733 13.0416 76.928C12.0709 75.8827 11.3243 74.6347 10.8016 73.184C10.2896 71.7333 10.0336 70.1493 10.0336 68.432C10.0336 66.6933 10.3109 65.104 10.8656 63.664C11.4203 62.2133 12.1989 60.9653 13.2016 59.92C14.2149 58.8747 15.4203 58.064 16.8176 57.488C18.2149 56.9013 19.7616 56.608 21.4576 56.608C23.1429 56.608 24.6363 56.8853 25.9376 57.44C27.2496 57.9947 28.3643 58.72 29.2816 59.616L27.8416 61.616C27.7563 61.744 27.6443 61.856 27.5056 61.952C27.3776 62.048 27.1963 62.096 26.9616 62.096C26.8016 62.096 26.6363 62.0533 26.4656 61.968C26.2949 61.872 26.1083 61.76 25.9056 61.632C25.7029 61.4933 25.4683 61.344 25.2016 61.184C24.9349 61.024 24.6256 60.88 24.2736 60.752C23.9216 60.6133 23.5109 60.5013 23.0416 60.416C22.5829 60.32 22.0496 60.272 21.4416 60.272C20.4069 60.272 19.4576 60.4587 18.5936 60.832C17.7403 61.1947 17.0043 61.728 16.3856 62.432C15.7669 63.1253 15.2869 63.9787 14.9456 64.992C14.6043 65.9947 14.4336 67.1413 14.4336 68.432C14.4336 69.7333 14.6149 70.8907 14.9776 71.904C15.3509 72.9173 15.8523 73.7707 16.4816 74.464C17.1109 75.1573 17.8523 75.6907 18.7056 76.064C19.5589 76.4267 20.4763 76.608 21.4576 76.608C22.0443 76.608 22.5723 76.576 23.0416 76.512C23.5216 76.448 23.9589 76.3467 24.3536 76.208C24.7589 76.0693 25.1376 75.8933 25.4896 75.68C25.8523 75.456 26.2096 75.184 26.5616 74.864C26.6683 74.768 26.7803 74.6933 26.8976 74.64C27.0149 74.576 27.1376 74.544 27.2656 74.544ZM44.7579 71.264L41.9419 63.568C41.8032 63.2267 41.6592 62.8213 41.5099 62.352C41.3605 61.8827 41.2112 61.376 41.0619 60.832C40.9232 61.376 40.7792 61.888 40.6299 62.368C40.4805 62.8373 40.3365 63.248 40.1979 63.6L37.3979 71.264H44.7579ZM52.3579 80H49.0299C48.6565 80 48.3525 79.9093 48.1179 79.728C47.8832 79.536 47.7072 79.3013 47.5899 79.024L45.8619 74.304H36.2779L34.5499 79.024C34.4645 79.2693 34.2992 79.4933 34.0539 79.696C33.8085 79.8987 33.5045 80 33.1419 80H29.7819L38.8859 56.864H43.2699L52.3579 80ZM68.6626 60.4H61.6866V80H57.3826V60.4H50.4066V56.864H68.6626V60.4ZM76.0101 60.288V66.704H84.1061V70.016H76.0101V76.56H86.2821V80H71.6901V56.864H86.2821V60.288H76.0101ZM108.668 68.4V77.76C107.495 78.624 106.242 79.2587 104.908 79.664C103.586 80.0587 102.167 80.256 100.652 80.256C98.7644 80.256 97.0524 79.9627 95.5164 79.376C93.991 78.7893 92.6844 77.9733 91.5964 76.928C90.519 75.8827 89.687 74.6347 89.1004 73.184C88.5137 71.7333 88.2204 70.1493 88.2204 68.432C88.2204 66.6933 88.503 65.0987 89.0684 63.648C89.6337 62.1973 90.4337 60.9493 91.4684 59.904C92.5137 58.8587 93.7777 58.048 95.2604 57.472C96.743 56.896 98.407 56.608 100.252 56.608C101.191 56.608 102.066 56.6827 102.876 56.832C103.698 56.9813 104.455 57.1893 105.148 57.456C105.852 57.712 106.492 58.0267 107.068 58.4C107.644 58.7733 108.172 59.184 108.652 59.632L107.42 61.584C107.228 61.8933 106.978 62.0853 106.668 62.16C106.359 62.224 106.023 62.144 105.66 61.92C105.308 61.7173 104.956 61.5147 104.604 61.312C104.252 61.1093 103.858 60.9333 103.42 60.784C102.994 60.6347 102.508 60.512 101.964 60.416C101.431 60.32 100.812 60.272 100.108 60.272C98.967 60.272 97.9324 60.464 97.0044 60.848C96.087 61.232 95.303 61.7813 94.6524 62.496C94.0017 63.2107 93.5004 64.0693 93.1484 65.072C92.7964 66.0747 92.6204 67.1947 92.6204 68.432C92.6204 69.7547 92.807 70.9387 93.1804 71.984C93.5644 73.0187 94.0977 73.8987 94.7804 74.624C95.4737 75.3387 96.3057 75.888 97.2764 76.272C98.247 76.6453 99.3297 76.832 100.524 76.832C101.378 76.832 102.14 76.7413 102.812 76.56C103.484 76.3787 104.14 76.1333 104.78 75.824V71.632H101.868C101.591 71.632 101.372 71.5573 101.212 71.408C101.063 71.248 100.988 71.056 100.988 70.832V68.4H108.668ZM134.879 68.432C134.879 70.128 134.596 71.7013 134.031 73.152C133.476 74.592 132.687 75.84 131.663 76.896C130.639 77.952 129.407 78.7787 127.967 79.376C126.527 79.9627 124.927 80.256 123.167 80.256C121.418 80.256 119.823 79.9627 118.383 79.376C116.943 78.7787 115.706 77.952 114.671 76.896C113.647 75.84 112.852 74.592 112.287 73.152C111.722 71.7013 111.439 70.128 111.439 68.432C111.439 66.736 111.722 65.168 112.287 63.728C112.852 62.2773 113.647 61.024 114.671 59.968C115.706 58.912 116.943 58.0907 118.383 57.504C119.823 56.9067 121.418 56.608 123.167 56.608C124.34 56.608 125.444 56.7467 126.479 57.024C127.514 57.2907 128.463 57.6747 129.327 58.176C130.191 58.6667 130.964 59.2693 131.647 59.984C132.34 60.688 132.927 61.4773 133.407 62.352C133.887 63.2267 134.25 64.176 134.495 65.2C134.751 66.224 134.879 67.3013 134.879 68.432ZM130.479 68.432C130.479 67.1627 130.308 66.0267 129.967 65.024C129.626 64.0107 129.14 63.152 128.511 62.448C127.882 61.744 127.114 61.2053 126.207 60.832C125.311 60.4587 124.298 60.272 123.167 60.272C122.036 60.272 121.018 60.4587 120.111 60.832C119.215 61.2053 118.447 61.744 117.807 62.448C117.178 63.152 116.692 64.0107 116.351 65.024C116.01 66.0267 115.839 67.1627 115.839 68.432C115.839 69.7013 116.01 70.8427 116.351 71.856C116.692 72.8587 117.178 73.712 117.807 74.416C118.447 75.1093 119.215 75.6427 120.111 76.016C121.018 76.3893 122.036 76.576 123.167 76.576C124.298 76.576 125.311 76.3893 126.207 76.016C127.114 75.6427 127.882 75.1093 128.511 74.416C129.14 73.712 129.626 72.8587 129.967 71.856C130.308 70.8427 130.479 69.7013 130.479 68.432ZM145.651 67.872C146.462 67.872 147.166 67.7707 147.763 67.568C148.371 67.3653 148.867 67.088 149.251 66.736C149.646 66.3733 149.939 65.9467 150.131 65.456C150.323 64.9653 150.419 64.4267 150.419 63.84C150.419 62.6667 150.03 61.7653 149.251 61.136C148.483 60.5067 147.304 60.192 145.715 60.192H142.963V67.872H145.651ZM156.723 80H152.835C152.099 80 151.566 79.712 151.235 79.136L146.371 71.728C146.19 71.4507 145.987 71.2533 145.763 71.136C145.55 71.0187 145.23 70.96 144.803 70.96H142.963V80H138.659V56.864H145.715C147.283 56.864 148.627 57.0293 149.747 57.36C150.878 57.68 151.8 58.1333 152.515 58.72C153.24 59.3067 153.774 60.0107 154.115 60.832C154.456 61.6427 154.627 62.5387 154.627 63.52C154.627 64.2987 154.51 65.0347 154.275 65.728C154.051 66.4213 153.72 67.0507 153.283 67.616C152.856 68.1813 152.323 68.6773 151.683 69.104C151.054 69.5307 150.334 69.8667 149.523 70.112C149.8 70.272 150.056 70.464 150.291 70.688C150.526 70.9013 150.739 71.1573 150.931 71.456L156.723 80ZM163.541 80H159.221V56.864H163.541V80ZM173.041 60.288V66.704H181.137V70.016H173.041V76.56H183.313V80H168.721V56.864H183.313V60.288H173.041ZM199.448 61.072C199.32 61.296 199.181 61.4613 199.032 61.568C198.893 61.664 198.717 61.712 198.504 61.712C198.28 61.712 198.034 61.632 197.768 61.472C197.512 61.3013 197.202 61.1147 196.84 60.912C196.477 60.7093 196.05 60.528 195.56 60.368C195.08 60.1973 194.509 60.112 193.848 60.112C193.25 60.112 192.728 60.1867 192.28 60.336C191.832 60.4747 191.453 60.672 191.144 60.928C190.845 61.184 190.621 61.4933 190.472 61.856C190.322 62.208 190.248 62.5973 190.248 63.024C190.248 63.568 190.397 64.0213 190.696 64.384C191.005 64.7467 191.41 65.056 191.912 65.312C192.413 65.568 192.984 65.7973 193.624 66C194.264 66.2027 194.92 66.4213 195.592 66.656C196.264 66.88 196.92 67.1467 197.56 67.456C198.2 67.7547 198.77 68.1387 199.272 68.608C199.773 69.0667 200.173 69.632 200.472 70.304C200.781 70.976 200.936 71.792 200.936 72.752C200.936 73.7973 200.754 74.7787 200.392 75.696C200.04 76.6027 199.517 77.3973 198.824 78.08C198.141 78.752 197.304 79.2853 196.312 79.68C195.32 80.064 194.184 80.256 192.904 80.256C192.168 80.256 191.442 80.1813 190.728 80.032C190.013 79.8933 189.325 79.6907 188.664 79.424C188.013 79.1573 187.4 78.8373 186.824 78.464C186.248 78.0907 185.736 77.6747 185.288 77.216L186.552 75.152C186.658 75.0027 186.797 74.88 186.968 74.784C187.138 74.6773 187.32 74.624 187.512 74.624C187.778 74.624 188.066 74.736 188.376 74.96C188.685 75.1733 189.053 75.4133 189.48 75.68C189.906 75.9467 190.402 76.192 190.968 76.416C191.544 76.6293 192.232 76.736 193.032 76.736C194.258 76.736 195.208 76.448 195.88 75.872C196.552 75.2853 196.888 74.448 196.888 73.36C196.888 72.752 196.733 72.256 196.424 71.872C196.125 71.488 195.725 71.168 195.224 70.912C194.722 70.6453 194.152 70.4213 193.512 70.24C192.872 70.0587 192.221 69.8613 191.56 69.648C190.898 69.4347 190.248 69.1787 189.608 68.88C188.968 68.5813 188.397 68.192 187.896 67.712C187.394 67.232 186.989 66.6347 186.68 65.92C186.381 65.1947 186.232 64.304 186.232 63.248C186.232 62.4053 186.397 61.584 186.728 60.784C187.069 59.984 187.56 59.2747 188.2 58.656C188.84 58.0373 189.629 57.5413 190.568 57.168C191.506 56.7947 192.584 56.608 193.8 56.608C195.165 56.608 196.424 56.8213 197.576 57.248C198.728 57.6747 199.709 58.272 200.52 59.04L199.448 61.072Z" fill="white"/>
<line y1="-1.5" x2="143.717" y2="-1.5" transform="matrix(-0.00706318 0.999975 -0.999921 -0.0125992 505.518 27.2869)" stroke="white" stroke-width="3"/>
<line x1="507.548" y1="169.788" x2="-6.10352e-05" y2="169.788" stroke="white" stroke-width="3"/>
<line y1="-1.5" x2="304.254" y2="-1.5" transform="matrix(-0.999957 0.00927291 -0.00852009 -0.999964 508.871 24.5753)" stroke="white" stroke-width="3"/>
</svg>
