<svg width="28" height="25" viewBox="0 0 28 25" fill="none" xmlns="http://www.w3.org/2000/svg">
<path d="M14 0C10.6172 0 7.875 2.75439 7.875 6.15234C7.875 8.89941 11.8781 13.9062 13.4118 15.7236C13.7224 16.0918 14.2781 16.0918 14.5882 15.7236C16.1219 13.9062 20.125 8.89941 20.125 6.15234C20.125 2.75439 17.3828 0 14 0ZM0.978056 10.5444C0.689392 10.6604 0.441938 10.8606 0.267609 11.1192C0.0932792 11.3777 6.91351e-05 11.6828 0 11.9951L0 24.2178C0 24.7705 0.555625 25.1484 1.06653 24.9434L7.77778 21.875V10.4941C7.34806 9.71387 6.9966 8.9541 6.74479 8.22754L0.978056 10.5444ZM14 17.562C13.316 17.562 12.669 17.2603 12.2252 16.7339C11.2695 15.6011 10.2531 14.311 9.33333 12.9878V21.8745L18.6667 24.9995V12.9883C17.7469 14.311 16.731 15.6016 15.7748 16.7344C15.331 17.2603 14.684 17.562 14 17.562ZM26.9335 7.86914L20.2222 10.9375V25L27.0219 22.2681C27.3106 22.1521 27.5581 21.952 27.7325 21.6934C27.9068 21.4348 28 21.1297 28 20.8174V8.59473C28 8.04199 27.4444 7.66406 26.9335 7.86914Z" fill="#F5B100"/>
</svg>
